<svg id="visual" viewBox="0 0 1920 1080" width="1920" height="1080" xmlns="http://www.w3.org/2000/svg" xmlns:xlink="http://www.w3.org/1999/xlink" version="1.1"><path d="M0 656L45.7 679.5C91.3 703 182.7 750 274.2 747.3C365.7 744.7 457.3 692.3 548.8 691.5C640.3 690.7 731.7 741.3 823 740.8C914.3 740.3 1005.7 688.7 1097 679.3C1188.3 670 1279.7 703 1371.2 708.3C1462.7 713.7 1554.3 691.3 1645.8 700.2C1737.3 709 1828.7 749 1874.3 769L1920 789L1920 1081L1874.3 1081C1828.7 1081 1737.3 1081 1645.8 1081C1554.3 1081 1462.7 1081 1371.2 1081C1279.7 1081 1188.3 1081 1097 1081C1005.7 1081 914.3 1081 823 1081C731.7 1081 640.3 1081 548.8 1081C457.3 1081 365.7 1081 274.2 1081C182.7 1081 91.3 1081 45.7 1081L0 1081Z" fill="#c595ef"></path><path d="M0 853L45.7 838C91.3 823 182.7 793 274.2 771C365.7 749 457.3 735 548.8 729.2C640.3 723.3 731.7 725.7 823 737.2C914.3 748.7 1005.7 769.3 1097 773C1188.3 776.7 1279.7 763.3 1371.2 754.2C1462.7 745 1554.3 740 1645.8 743.2C1737.3 746.3 1828.7 757.7 1874.3 763.3L1920 769L1920 1081L1874.3 1081C1828.7 1081 1737.3 1081 1645.8 1081C1554.3 1081 1462.7 1081 1371.2 1081C1279.7 1081 1188.3 1081 1097 1081C1005.7 1081 914.3 1081 823 1081C731.7 1081 640.3 1081 548.8 1081C457.3 1081 365.7 1081 274.2 1081C182.7 1081 91.3 1081 45.7 1081L0 1081Z" fill="#b67deb"></path><path d="M0 858L45.7 861.2C91.3 864.3 182.7 870.7 274.2 876.7C365.7 882.7 457.3 888.3 548.8 880.8C640.3 873.3 731.7 852.7 823 850.3C914.3 848 1005.7 864 1097 869.3C1188.3 874.7 1279.7 869.3 1371.2 866.7C1462.7 864 1554.3 864 1645.8 861.8C1737.3 859.7 1828.7 855.3 1874.3 853.2L1920 851L1920 1081L1874.3 1081C1828.7 1081 1737.3 1081 1645.8 1081C1554.3 1081 1462.7 1081 1371.2 1081C1279.7 1081 1188.3 1081 1097 1081C1005.7 1081 914.3 1081 823 1081C731.7 1081 640.3 1081 548.8 1081C457.3 1081 365.7 1081 274.2 1081C182.7 1081 91.3 1081 45.7 1081L0 1081Z" fill="#a765e6"></path><path d="M0 890L45.7 894.3C91.3 898.7 182.7 907.3 274.2 908.2C365.7 909 457.3 902 548.8 899.5C640.3 897 731.7 899 823 910C914.3 921 1005.7 941 1097 936.3C1188.3 931.7 1279.7 902.3 1371.2 889.3C1462.7 876.3 1554.3 879.7 1645.8 883.2C1737.3 886.7 1828.7 890.3 1874.3 892.2L1920 894L1920 1081L1874.3 1081C1828.7 1081 1737.3 1081 1645.8 1081C1554.3 1081 1462.7 1081 1371.2 1081C1279.7 1081 1188.3 1081 1097 1081C1005.7 1081 914.3 1081 823 1081C731.7 1081 640.3 1081 548.8 1081C457.3 1081 365.7 1081 274.2 1081C182.7 1081 91.3 1081 45.7 1081L0 1081Z" fill="#9155c9"></path><path d="M0 1026L45.7 1024.5C91.3 1023 182.7 1020 274.2 1020C365.7 1020 457.3 1023 548.8 1018.5C640.3 1014 731.7 1002 823 1001C914.3 1000 1005.7 1010 1097 1009.3C1188.3 1008.7 1279.7 997.3 1371.2 992.3C1462.7 987.3 1554.3 988.7 1645.8 984.2C1737.3 979.7 1828.7 969.3 1874.3 964.2L1920 959L1920 1081L1874.3 1081C1828.7 1081 1737.3 1081 1645.8 1081C1554.3 1081 1462.7 1081 1371.2 1081C1279.7 1081 1188.3 1081 1097 1081C1005.7 1081 914.3 1081 823 1081C731.7 1081 640.3 1081 548.8 1081C457.3 1081 365.7 1081 274.2 1081C182.7 1081 91.3 1081 45.7 1081L0 1081Z" fill="#7b45ad"></path></svg>