<svg id="visual" viewBox="0 0 900 600" width="900" height="600" xmlns="http://www.w3.org/2000/svg" xmlns:xlink="http://www.w3.org/1999/xlink" version="1.1"><path d="M0 365L21.5 380.5C43 396 86 427 128.8 436.3C171.7 445.7 214.3 433.3 257.2 415.8C300 398.3 343 375.7 385.8 373C428.7 370.3 471.3 387.7 514.2 391.3C557 395 600 385 642.8 369.3C685.7 353.7 728.3 332.3 771.2 348.5C814 364.7 857 418.3 878.5 445.2L900 472L900 601L878.5 601C857 601 814 601 771.2 601C728.3 601 685.7 601 642.8 601C600 601 557 601 514.2 601C471.3 601 428.7 601 385.8 601C343 601 300 601 257.2 601C214.3 601 171.7 601 128.8 601C86 601 43 601 21.5 601L0 601Z" fill="#A765E6" stroke-linecap="round" stroke-linejoin="miter"></path></svg>