<svg id="visual" viewBox="0 0 1920 1080" width="1920" height="1080" xmlns="http://www.w3.org/2000/svg" xmlns:xlink="http://www.w3.org/1999/xlink" version="1.1"><path d="M0 397L15.2 393.5C30.3 390 60.7 383 91.2 357.3C121.7 331.7 152.3 287.3 182.8 247.3C213.3 207.3 243.7 171.7 274.2 150.2C304.7 128.7 335.3 121.3 365.8 133.7C396.3 146 426.7 178 457.2 225.3C487.7 272.7 518.3 335.3 548.8 364.5C579.3 393.7 609.7 389.3 640 388.2C670.3 387 700.7 389 731.2 379C761.7 369 792.3 347 822.8 334.2C853.3 321.3 883.7 317.7 914.2 292.7C944.7 267.7 975.3 221.3 1005.8 215.2C1036.3 209 1066.7 243 1097.2 285.3C1127.7 327.7 1158.3 378.3 1188.8 393C1219.3 407.7 1249.7 386.3 1280 339C1310.3 291.7 1340.7 218.3 1371.2 194.2C1401.7 170 1432.3 195 1462.8 191C1493.3 187 1523.7 154 1554.2 188.5C1584.7 223 1615.3 325 1645.8 344.7C1676.3 364.3 1706.7 301.7 1737.2 254.7C1767.7 207.7 1798.3 176.3 1828.8 182.8C1859.3 189.3 1889.7 233.7 1904.8 255.8L1920 278L1920 0L1904.8 0C1889.7 0 1859.3 0 1828.8 0C1798.3 0 1767.7 0 1737.2 0C1706.7 0 1676.3 0 1645.8 0C1615.3 0 1584.7 0 1554.2 0C1523.7 0 1493.3 0 1462.8 0C1432.3 0 1401.7 0 1371.2 0C1340.7 0 1310.3 0 1280 0C1249.7 0 1219.3 0 1188.8 0C1158.3 0 1127.7 0 1097.2 0C1066.7 0 1036.3 0 1005.8 0C975.3 0 944.7 0 914.2 0C883.7 0 853.3 0 822.8 0C792.3 0 761.7 0 731.2 0C700.7 0 670.3 0 640 0C609.7 0 579.3 0 548.8 0C518.3 0 487.7 0 457.2 0C426.7 0 396.3 0 365.8 0C335.3 0 304.7 0 274.2 0C243.7 0 213.3 0 182.8 0C152.3 0 121.7 0 91.2 0C60.7 0 30.3 0 15.2 0L0 0Z" fill="#7B45AD" stroke-linecap="round" stroke-linejoin="miter"></path></svg>